<svg xmlns="http://www.w3.org/2000/svg" width="45" height="45" viewBox="0 0 45 45">
    <g fill="none" fill-rule="evenodd">
        <g>
            <g>
                <g transform="translate(-1143 -1896) translate(896 1561) translate(247 335)">
                    <circle cx="22.5" cy="22.5" r="22.5" fill="#2A0038" opacity=".5"/>
                    <g>
                        <path stroke="#FFF" stroke-linecap="round" stroke-linejoin="round" stroke-width="1.5" d="M21.176 0.465L17.995 0.465 15.404 12.874 3.042 12.874 0.451 3.068 16.813 3.068" transform="matrix(-1 0 0 1 32 15)"/>
                        <path fill="#FFF" d="M4.136 18.584c-.718 0-1.3-.583-1.3-1.301 0-.719.582-1.301 1.3-1.301.718 0 1.3.582 1.3 1.3 0 .72-.582 1.302-1.3 1.302zM15.387 17.283c0 .718-.582 1.3-1.3 1.3-.718 0-1.3-.582-1.3-1.3 0-.719.582-1.301 1.3-1.301.718 0 1.3.582 1.3 1.3" transform="matrix(-1 0 0 1 32 15)"/>
                    </g>
                </g>
            </g>
        </g>
    </g>
</svg>
